<mxfile host="Electron" modified="2025-01-20T03:25:31.615Z" agent="Mozilla/5.0 (Windows NT 10.0; Win64; x64) AppleWebKit/537.36 (KHTML, like Gecko) draw.io/22.0.2 Chrome/114.0.5735.289 Electron/25.8.4 Safari/537.36" etag="HPg86bUBhDfLQuXCKJXG" version="22.0.2" type="device">
  <diagram name="第 1 页" id="gzkcJyT_NyeW7HWYuXlf">
    <mxGraphModel dx="1548" dy="902" grid="1" gridSize="10" guides="1" tooltips="1" connect="1" arrows="1" fold="1" page="1" pageScale="1" pageWidth="827" pageHeight="1169" math="0" shadow="0">
      <root>
        <mxCell id="0" />
        <mxCell id="1" parent="0" />
        <mxCell id="udePjBzcwdjK7nTABkOy-67" style="edgeStyle=orthogonalEdgeStyle;rounded=0;orthogonalLoop=1;jettySize=auto;html=1;exitX=0.5;exitY=1;exitDx=0;exitDy=0;entryX=0.5;entryY=0;entryDx=0;entryDy=0;" edge="1" parent="1" source="udePjBzcwdjK7nTABkOy-1" target="udePjBzcwdjK7nTABkOy-9">
          <mxGeometry relative="1" as="geometry" />
        </mxCell>
        <mxCell id="udePjBzcwdjK7nTABkOy-1" value="......" style="rounded=1;whiteSpace=wrap;html=1;fontSize=24;fontStyle=1;strokeColor=none;" vertex="1" parent="1">
          <mxGeometry x="450" y="240" width="80" height="40" as="geometry" />
        </mxCell>
        <mxCell id="udePjBzcwdjK7nTABkOy-3" style="edgeStyle=orthogonalEdgeStyle;rounded=0;orthogonalLoop=1;jettySize=auto;html=1;exitX=0.5;exitY=1;exitDx=0;exitDy=0;fontStyle=1;strokeColor=none;" edge="1" parent="1" source="udePjBzcwdjK7nTABkOy-1" target="udePjBzcwdjK7nTABkOy-1">
          <mxGeometry relative="1" as="geometry" />
        </mxCell>
        <mxCell id="udePjBzcwdjK7nTABkOy-4" value="3×3, 64" style="rounded=1;whiteSpace=wrap;html=1;fontSize=25;fillColor=#dae8fc;strokeColor=#000000;" vertex="1" parent="1">
          <mxGeometry x="70" y="310" width="240" height="30" as="geometry" />
        </mxCell>
        <mxCell id="udePjBzcwdjK7nTABkOy-62" style="edgeStyle=orthogonalEdgeStyle;rounded=0;orthogonalLoop=1;jettySize=auto;html=1;exitX=0.5;exitY=1;exitDx=0;exitDy=0;entryX=0.5;entryY=0;entryDx=0;entryDy=0;" edge="1" parent="1" source="udePjBzcwdjK7nTABkOy-5" target="udePjBzcwdjK7nTABkOy-7">
          <mxGeometry relative="1" as="geometry" />
        </mxCell>
        <mxCell id="udePjBzcwdjK7nTABkOy-5" value="3×3, 64" style="rounded=1;whiteSpace=wrap;html=1;fontSize=25;fillColor=#dae8fc;strokeColor=#000000;" vertex="1" parent="1">
          <mxGeometry x="70" y="350" width="240" height="30" as="geometry" />
        </mxCell>
        <mxCell id="udePjBzcwdjK7nTABkOy-7" value="3×3, 64" style="rounded=1;whiteSpace=wrap;html=1;fontSize=25;fillColor=#dae8fc;strokeColor=#000000;" vertex="1" parent="1">
          <mxGeometry x="70" y="410" width="240" height="30" as="geometry" />
        </mxCell>
        <mxCell id="udePjBzcwdjK7nTABkOy-63" style="edgeStyle=orthogonalEdgeStyle;rounded=0;orthogonalLoop=1;jettySize=auto;html=1;exitX=0.5;exitY=1;exitDx=0;exitDy=0;entryX=0.5;entryY=0;entryDx=0;entryDy=0;" edge="1" parent="1" source="udePjBzcwdjK7nTABkOy-8" target="udePjBzcwdjK7nTABkOy-16">
          <mxGeometry relative="1" as="geometry" />
        </mxCell>
        <mxCell id="udePjBzcwdjK7nTABkOy-8" value="3×3, 64" style="rounded=1;whiteSpace=wrap;html=1;fontSize=25;fillColor=#dae8fc;strokeColor=#000000;" vertex="1" parent="1">
          <mxGeometry x="70" y="450" width="240" height="30" as="geometry" />
        </mxCell>
        <mxCell id="udePjBzcwdjK7nTABkOy-9" value="3×3, 64" style="rounded=1;whiteSpace=wrap;html=1;fontSize=25;fillColor=#dae8fc;strokeColor=#000000;" vertex="1" parent="1">
          <mxGeometry x="370" y="310" width="240" height="30" as="geometry" />
        </mxCell>
        <mxCell id="udePjBzcwdjK7nTABkOy-69" style="edgeStyle=orthogonalEdgeStyle;rounded=0;orthogonalLoop=1;jettySize=auto;html=1;exitX=0.5;exitY=1;exitDx=0;exitDy=0;entryX=0.5;entryY=0;entryDx=0;entryDy=0;" edge="1" parent="1" source="udePjBzcwdjK7nTABkOy-10" target="udePjBzcwdjK7nTABkOy-11">
          <mxGeometry relative="1" as="geometry" />
        </mxCell>
        <mxCell id="udePjBzcwdjK7nTABkOy-10" value="3×3, 64" style="rounded=1;whiteSpace=wrap;html=1;fontSize=25;fillColor=#dae8fc;strokeColor=#000000;" vertex="1" parent="1">
          <mxGeometry x="370" y="350" width="240" height="30" as="geometry" />
        </mxCell>
        <mxCell id="udePjBzcwdjK7nTABkOy-11" value="3×3, 64" style="rounded=1;whiteSpace=wrap;html=1;fontSize=25;fillColor=#dae8fc;strokeColor=#000000;" vertex="1" parent="1">
          <mxGeometry x="370" y="410" width="240" height="30" as="geometry" />
        </mxCell>
        <mxCell id="udePjBzcwdjK7nTABkOy-70" style="edgeStyle=orthogonalEdgeStyle;rounded=0;orthogonalLoop=1;jettySize=auto;html=1;exitX=0.5;exitY=1;exitDx=0;exitDy=0;entryX=0.5;entryY=0;entryDx=0;entryDy=0;" edge="1" parent="1" source="udePjBzcwdjK7nTABkOy-12" target="udePjBzcwdjK7nTABkOy-13">
          <mxGeometry relative="1" as="geometry" />
        </mxCell>
        <mxCell id="udePjBzcwdjK7nTABkOy-12" value="3×3, 64" style="rounded=1;whiteSpace=wrap;html=1;fontSize=25;fillColor=#dae8fc;strokeColor=#000000;" vertex="1" parent="1">
          <mxGeometry x="370" y="450" width="240" height="30" as="geometry" />
        </mxCell>
        <mxCell id="udePjBzcwdjK7nTABkOy-13" value="3×3, 64" style="rounded=1;whiteSpace=wrap;html=1;fontSize=25;fillColor=#dae8fc;strokeColor=#000000;" vertex="1" parent="1">
          <mxGeometry x="370" y="515" width="240" height="30" as="geometry" />
        </mxCell>
        <mxCell id="udePjBzcwdjK7nTABkOy-71" style="edgeStyle=orthogonalEdgeStyle;rounded=0;orthogonalLoop=1;jettySize=auto;html=1;exitX=0.5;exitY=1;exitDx=0;exitDy=0;entryX=0.5;entryY=0;entryDx=0;entryDy=0;" edge="1" parent="1" source="udePjBzcwdjK7nTABkOy-14" target="udePjBzcwdjK7nTABkOy-21">
          <mxGeometry relative="1" as="geometry" />
        </mxCell>
        <mxCell id="udePjBzcwdjK7nTABkOy-14" value="3×3, 64" style="rounded=1;whiteSpace=wrap;html=1;fontSize=25;fillColor=#dae8fc;strokeColor=#000000;" vertex="1" parent="1">
          <mxGeometry x="370" y="555" width="240" height="30" as="geometry" />
        </mxCell>
        <mxCell id="udePjBzcwdjK7nTABkOy-15" style="edgeStyle=orthogonalEdgeStyle;rounded=0;orthogonalLoop=1;jettySize=auto;html=1;exitX=0.5;exitY=1;exitDx=0;exitDy=0;fillColor=#d5e8d4;strokeColor=#82b366;" edge="1" parent="1">
          <mxGeometry relative="1" as="geometry">
            <mxPoint x="190" y="585" as="sourcePoint" />
            <mxPoint x="190" y="585" as="targetPoint" />
          </mxGeometry>
        </mxCell>
        <mxCell id="udePjBzcwdjK7nTABkOy-16" value="3×3, 128" style="rounded=1;whiteSpace=wrap;html=1;fontSize=25;fillColor=#d5e8d4;strokeColor=#000000;" vertex="1" parent="1">
          <mxGeometry x="70" y="625" width="240" height="30" as="geometry" />
        </mxCell>
        <mxCell id="udePjBzcwdjK7nTABkOy-65" style="edgeStyle=orthogonalEdgeStyle;rounded=0;orthogonalLoop=1;jettySize=auto;html=1;exitX=0.5;exitY=1;exitDx=0;exitDy=0;entryX=0.5;entryY=0;entryDx=0;entryDy=0;" edge="1" parent="1" source="udePjBzcwdjK7nTABkOy-17" target="udePjBzcwdjK7nTABkOy-18">
          <mxGeometry relative="1" as="geometry" />
        </mxCell>
        <mxCell id="udePjBzcwdjK7nTABkOy-17" value="3×3, 128" style="rounded=1;whiteSpace=wrap;html=1;fontSize=25;fillColor=#d5e8d4;strokeColor=#000000;" vertex="1" parent="1">
          <mxGeometry x="70" y="665" width="240" height="30" as="geometry" />
        </mxCell>
        <mxCell id="udePjBzcwdjK7nTABkOy-18" value="3×3, 128" style="rounded=1;whiteSpace=wrap;html=1;fontSize=25;fillColor=#d5e8d4;strokeColor=#000000;" vertex="1" parent="1">
          <mxGeometry x="70" y="730" width="240" height="30" as="geometry" />
        </mxCell>
        <mxCell id="udePjBzcwdjK7nTABkOy-89" style="edgeStyle=orthogonalEdgeStyle;rounded=0;orthogonalLoop=1;jettySize=auto;html=1;exitX=0.5;exitY=1;exitDx=0;exitDy=0;entryX=0.5;entryY=0;entryDx=0;entryDy=0;" edge="1" parent="1" source="udePjBzcwdjK7nTABkOy-19" target="udePjBzcwdjK7nTABkOy-85">
          <mxGeometry relative="1" as="geometry" />
        </mxCell>
        <mxCell id="udePjBzcwdjK7nTABkOy-19" value="3×3, 128" style="rounded=1;whiteSpace=wrap;html=1;fontSize=25;fillColor=#d5e8d4;strokeColor=#000000;" vertex="1" parent="1">
          <mxGeometry x="70" y="770" width="240" height="30" as="geometry" />
        </mxCell>
        <mxCell id="udePjBzcwdjK7nTABkOy-20" style="edgeStyle=orthogonalEdgeStyle;rounded=0;orthogonalLoop=1;jettySize=auto;html=1;exitX=0.5;exitY=1;exitDx=0;exitDy=0;fillColor=#d5e8d4;strokeColor=#82b366;" edge="1" parent="1">
          <mxGeometry relative="1" as="geometry">
            <mxPoint x="490" y="585" as="sourcePoint" />
            <mxPoint x="490" y="585" as="targetPoint" />
          </mxGeometry>
        </mxCell>
        <mxCell id="udePjBzcwdjK7nTABkOy-21" value="3×3, 128" style="rounded=1;whiteSpace=wrap;html=1;fontSize=25;fillColor=#d5e8d4;strokeColor=#000000;" vertex="1" parent="1">
          <mxGeometry x="370" y="625" width="240" height="30" as="geometry" />
        </mxCell>
        <mxCell id="udePjBzcwdjK7nTABkOy-72" style="edgeStyle=orthogonalEdgeStyle;rounded=0;orthogonalLoop=1;jettySize=auto;html=1;exitX=0.5;exitY=1;exitDx=0;exitDy=0;entryX=0.5;entryY=0;entryDx=0;entryDy=0;" edge="1" parent="1" source="udePjBzcwdjK7nTABkOy-22" target="udePjBzcwdjK7nTABkOy-25">
          <mxGeometry relative="1" as="geometry" />
        </mxCell>
        <mxCell id="udePjBzcwdjK7nTABkOy-22" value="3×3, 128" style="rounded=1;whiteSpace=wrap;html=1;fontSize=25;fillColor=#d5e8d4;strokeColor=#000000;" vertex="1" parent="1">
          <mxGeometry x="370" y="665" width="240" height="30" as="geometry" />
        </mxCell>
        <mxCell id="udePjBzcwdjK7nTABkOy-25" value="3×3, 128" style="rounded=1;whiteSpace=wrap;html=1;fontSize=25;fillColor=#d5e8d4;strokeColor=#000000;" vertex="1" parent="1">
          <mxGeometry x="370" y="730" width="240" height="30" as="geometry" />
        </mxCell>
        <mxCell id="udePjBzcwdjK7nTABkOy-73" style="edgeStyle=orthogonalEdgeStyle;rounded=0;orthogonalLoop=1;jettySize=auto;html=1;exitX=0.5;exitY=1;exitDx=0;exitDy=0;entryX=0.5;entryY=0;entryDx=0;entryDy=0;" edge="1" parent="1" source="udePjBzcwdjK7nTABkOy-26" target="udePjBzcwdjK7nTABkOy-27">
          <mxGeometry relative="1" as="geometry" />
        </mxCell>
        <mxCell id="udePjBzcwdjK7nTABkOy-26" value="3×3, 128" style="rounded=1;whiteSpace=wrap;html=1;fontSize=25;fillColor=#d5e8d4;strokeColor=#000000;" vertex="1" parent="1">
          <mxGeometry x="370" y="770" width="240" height="30" as="geometry" />
        </mxCell>
        <mxCell id="udePjBzcwdjK7nTABkOy-27" value="3×3, 128" style="rounded=1;whiteSpace=wrap;html=1;fontSize=25;fillColor=#d5e8d4;strokeColor=#000000;" vertex="1" parent="1">
          <mxGeometry x="370" y="830" width="240" height="30" as="geometry" />
        </mxCell>
        <mxCell id="udePjBzcwdjK7nTABkOy-74" style="edgeStyle=orthogonalEdgeStyle;rounded=0;orthogonalLoop=1;jettySize=auto;html=1;exitX=0.5;exitY=1;exitDx=0;exitDy=0;entryX=0.5;entryY=0;entryDx=0;entryDy=0;" edge="1" parent="1" source="udePjBzcwdjK7nTABkOy-28" target="udePjBzcwdjK7nTABkOy-29">
          <mxGeometry relative="1" as="geometry" />
        </mxCell>
        <mxCell id="udePjBzcwdjK7nTABkOy-28" value="3×3, 128" style="rounded=1;whiteSpace=wrap;html=1;fontSize=25;fillColor=#d5e8d4;strokeColor=#000000;" vertex="1" parent="1">
          <mxGeometry x="370" y="870" width="240" height="30" as="geometry" />
        </mxCell>
        <mxCell id="udePjBzcwdjK7nTABkOy-29" value="3×3, 128" style="rounded=1;whiteSpace=wrap;html=1;fontSize=25;fillColor=#d5e8d4;strokeColor=#000000;" vertex="1" parent="1">
          <mxGeometry x="370" y="930" width="240" height="30" as="geometry" />
        </mxCell>
        <mxCell id="udePjBzcwdjK7nTABkOy-90" style="edgeStyle=orthogonalEdgeStyle;rounded=0;orthogonalLoop=1;jettySize=auto;html=1;exitX=0.5;exitY=1;exitDx=0;exitDy=0;entryX=0.5;entryY=0;entryDx=0;entryDy=0;" edge="1" parent="1" source="udePjBzcwdjK7nTABkOy-30" target="udePjBzcwdjK7nTABkOy-86">
          <mxGeometry relative="1" as="geometry" />
        </mxCell>
        <mxCell id="udePjBzcwdjK7nTABkOy-30" value="3×3, 128" style="rounded=1;whiteSpace=wrap;html=1;fontSize=25;fillColor=#d5e8d4;strokeColor=#000000;" vertex="1" parent="1">
          <mxGeometry x="370" y="970" width="240" height="30" as="geometry" />
        </mxCell>
        <mxCell id="udePjBzcwdjK7nTABkOy-64" style="edgeStyle=orthogonalEdgeStyle;rounded=0;orthogonalLoop=1;jettySize=auto;html=1;exitX=0.5;exitY=1;exitDx=0;exitDy=0;entryX=0.5;entryY=0;entryDx=0;entryDy=0;" edge="1" parent="1" source="udePjBzcwdjK7nTABkOy-31" target="udePjBzcwdjK7nTABkOy-4">
          <mxGeometry relative="1" as="geometry" />
        </mxCell>
        <mxCell id="udePjBzcwdjK7nTABkOy-31" value="......" style="rounded=1;whiteSpace=wrap;html=1;fontSize=24;fontStyle=1;strokeColor=none;" vertex="1" parent="1">
          <mxGeometry x="150" y="240" width="80" height="40" as="geometry" />
        </mxCell>
        <mxCell id="udePjBzcwdjK7nTABkOy-75" style="edgeStyle=orthogonalEdgeStyle;rounded=0;orthogonalLoop=1;jettySize=auto;html=1;exitX=0.5;exitY=1;exitDx=0;exitDy=0;entryX=0.5;entryY=0;entryDx=0;entryDy=0;" edge="1" parent="1" source="udePjBzcwdjK7nTABkOy-32" target="udePjBzcwdjK7nTABkOy-35">
          <mxGeometry relative="1" as="geometry" />
        </mxCell>
        <mxCell id="udePjBzcwdjK7nTABkOy-32" value="......" style="rounded=1;whiteSpace=wrap;html=1;fontSize=24;fontStyle=1;strokeColor=none;" vertex="1" parent="1">
          <mxGeometry x="750" y="240" width="80" height="40" as="geometry" />
        </mxCell>
        <mxCell id="udePjBzcwdjK7nTABkOy-35" value="3×3, 128" style="rounded=1;whiteSpace=wrap;html=1;fontSize=25;fillColor=#d5e8d4;strokeColor=#000000;" vertex="1" parent="1">
          <mxGeometry x="670" y="310" width="240" height="30" as="geometry" />
        </mxCell>
        <mxCell id="udePjBzcwdjK7nTABkOy-76" style="edgeStyle=orthogonalEdgeStyle;rounded=0;orthogonalLoop=1;jettySize=auto;html=1;exitX=0.5;exitY=1;exitDx=0;exitDy=0;entryX=0.5;entryY=0;entryDx=0;entryDy=0;" edge="1" parent="1" source="udePjBzcwdjK7nTABkOy-36" target="udePjBzcwdjK7nTABkOy-43">
          <mxGeometry relative="1" as="geometry" />
        </mxCell>
        <mxCell id="udePjBzcwdjK7nTABkOy-36" value="3×3, 128" style="rounded=1;whiteSpace=wrap;html=1;fontSize=25;fillColor=#d5e8d4;strokeColor=#000000;" vertex="1" parent="1">
          <mxGeometry x="670" y="350" width="240" height="30" as="geometry" />
        </mxCell>
        <mxCell id="udePjBzcwdjK7nTABkOy-37" value="3×3, 128" style="rounded=1;whiteSpace=wrap;html=1;fontSize=25;fillColor=#d5e8d4;strokeColor=#000000;" vertex="1" parent="1">
          <mxGeometry x="970" y="310" width="240" height="30" as="geometry" />
        </mxCell>
        <mxCell id="udePjBzcwdjK7nTABkOy-80" style="edgeStyle=orthogonalEdgeStyle;rounded=0;orthogonalLoop=1;jettySize=auto;html=1;exitX=0.5;exitY=1;exitDx=0;exitDy=0;entryX=0.5;entryY=0;entryDx=0;entryDy=0;" edge="1" parent="1" source="udePjBzcwdjK7nTABkOy-38" target="udePjBzcwdjK7nTABkOy-45">
          <mxGeometry relative="1" as="geometry" />
        </mxCell>
        <mxCell id="udePjBzcwdjK7nTABkOy-38" value="3×3, 128" style="rounded=1;whiteSpace=wrap;html=1;fontSize=25;fillColor=#d5e8d4;strokeColor=#000000;" vertex="1" parent="1">
          <mxGeometry x="970" y="350" width="240" height="30" as="geometry" />
        </mxCell>
        <mxCell id="udePjBzcwdjK7nTABkOy-43" value="3×3, 256" style="rounded=1;whiteSpace=wrap;html=1;fontSize=25;fillColor=#ffe6cc;strokeColor=#000000;" vertex="1" parent="1">
          <mxGeometry x="670" y="410" width="240" height="30" as="geometry" />
        </mxCell>
        <mxCell id="udePjBzcwdjK7nTABkOy-77" style="edgeStyle=orthogonalEdgeStyle;rounded=0;orthogonalLoop=1;jettySize=auto;html=1;exitX=0.5;exitY=1;exitDx=0;exitDy=0;entryX=0.5;entryY=0;entryDx=0;entryDy=0;" edge="1" parent="1" source="udePjBzcwdjK7nTABkOy-44" target="udePjBzcwdjK7nTABkOy-49">
          <mxGeometry relative="1" as="geometry" />
        </mxCell>
        <mxCell id="udePjBzcwdjK7nTABkOy-44" value="3×3, 256" style="rounded=1;whiteSpace=wrap;html=1;fontSize=25;fillColor=#ffe6cc;strokeColor=#000000;" vertex="1" parent="1">
          <mxGeometry x="670" y="450" width="240" height="30" as="geometry" />
        </mxCell>
        <mxCell id="udePjBzcwdjK7nTABkOy-45" value="3×3, 256" style="rounded=1;whiteSpace=wrap;html=1;fontSize=25;fillColor=#ffe6cc;strokeColor=#000000;" vertex="1" parent="1">
          <mxGeometry x="970" y="410" width="240" height="30" as="geometry" />
        </mxCell>
        <mxCell id="udePjBzcwdjK7nTABkOy-81" style="edgeStyle=orthogonalEdgeStyle;rounded=0;orthogonalLoop=1;jettySize=auto;html=1;exitX=0.5;exitY=1;exitDx=0;exitDy=0;entryX=0.5;entryY=0;entryDx=0;entryDy=0;" edge="1" parent="1" source="udePjBzcwdjK7nTABkOy-46" target="udePjBzcwdjK7nTABkOy-47">
          <mxGeometry relative="1" as="geometry" />
        </mxCell>
        <mxCell id="udePjBzcwdjK7nTABkOy-46" value="3×3, 256" style="rounded=1;whiteSpace=wrap;html=1;fontSize=25;fillColor=#ffe6cc;strokeColor=#000000;" vertex="1" parent="1">
          <mxGeometry x="970" y="450" width="240" height="30" as="geometry" />
        </mxCell>
        <mxCell id="udePjBzcwdjK7nTABkOy-47" value="3×3, 256" style="rounded=1;whiteSpace=wrap;html=1;fontSize=25;fillColor=#ffe6cc;strokeColor=#000000;" vertex="1" parent="1">
          <mxGeometry x="970" y="515" width="240" height="30" as="geometry" />
        </mxCell>
        <mxCell id="udePjBzcwdjK7nTABkOy-83" style="edgeStyle=orthogonalEdgeStyle;rounded=0;orthogonalLoop=1;jettySize=auto;html=1;exitX=0.5;exitY=1;exitDx=0;exitDy=0;entryX=0.5;entryY=0;entryDx=0;entryDy=0;" edge="1" parent="1" source="udePjBzcwdjK7nTABkOy-48" target="udePjBzcwdjK7nTABkOy-51">
          <mxGeometry relative="1" as="geometry" />
        </mxCell>
        <mxCell id="udePjBzcwdjK7nTABkOy-48" value="3×3, 256" style="rounded=1;whiteSpace=wrap;html=1;fontSize=25;fillColor=#ffe6cc;strokeColor=#000000;" vertex="1" parent="1">
          <mxGeometry x="970" y="555" width="240" height="30" as="geometry" />
        </mxCell>
        <mxCell id="udePjBzcwdjK7nTABkOy-78" style="edgeStyle=orthogonalEdgeStyle;rounded=0;orthogonalLoop=1;jettySize=auto;html=1;exitX=0.5;exitY=1;exitDx=0;exitDy=0;entryX=0.5;entryY=0;entryDx=0;entryDy=0;" edge="1" parent="1" source="udePjBzcwdjK7nTABkOy-49" target="udePjBzcwdjK7nTABkOy-55">
          <mxGeometry relative="1" as="geometry" />
        </mxCell>
        <mxCell id="udePjBzcwdjK7nTABkOy-49" value="3×3, 256" style="rounded=1;whiteSpace=wrap;html=1;fontSize=25;fillColor=#ffe6cc;strokeColor=#000000;" vertex="1" parent="1">
          <mxGeometry x="670" y="515" width="240" height="30" as="geometry" />
        </mxCell>
        <mxCell id="udePjBzcwdjK7nTABkOy-51" value="3×3, 512" style="rounded=1;whiteSpace=wrap;html=1;fontSize=25;fillColor=#f8cecc;strokeColor=#000000;" vertex="1" parent="1">
          <mxGeometry x="970" y="625" width="240" height="30" as="geometry" />
        </mxCell>
        <mxCell id="udePjBzcwdjK7nTABkOy-84" style="edgeStyle=orthogonalEdgeStyle;rounded=0;orthogonalLoop=1;jettySize=auto;html=1;exitX=0.5;exitY=1;exitDx=0;exitDy=0;entryX=0.5;entryY=0;entryDx=0;entryDy=0;" edge="1" parent="1" source="udePjBzcwdjK7nTABkOy-52" target="udePjBzcwdjK7nTABkOy-53">
          <mxGeometry relative="1" as="geometry" />
        </mxCell>
        <mxCell id="udePjBzcwdjK7nTABkOy-52" value="3×3, 512" style="rounded=1;whiteSpace=wrap;html=1;fontSize=25;fillColor=#f8cecc;strokeColor=#000000;" vertex="1" parent="1">
          <mxGeometry x="970" y="665" width="240" height="30" as="geometry" />
        </mxCell>
        <mxCell id="udePjBzcwdjK7nTABkOy-53" value="3×3, 512" style="rounded=1;whiteSpace=wrap;html=1;fontSize=25;fillColor=#f8cecc;strokeColor=#000000;" vertex="1" parent="1">
          <mxGeometry x="970" y="730" width="240" height="30" as="geometry" />
        </mxCell>
        <mxCell id="udePjBzcwdjK7nTABkOy-92" style="edgeStyle=orthogonalEdgeStyle;rounded=0;orthogonalLoop=1;jettySize=auto;html=1;exitX=0.5;exitY=1;exitDx=0;exitDy=0;" edge="1" parent="1" source="udePjBzcwdjK7nTABkOy-54" target="udePjBzcwdjK7nTABkOy-88">
          <mxGeometry relative="1" as="geometry" />
        </mxCell>
        <mxCell id="udePjBzcwdjK7nTABkOy-54" value="3×3, 512" style="rounded=1;whiteSpace=wrap;html=1;fontSize=25;fillColor=#f8cecc;strokeColor=#000000;" vertex="1" parent="1">
          <mxGeometry x="970" y="770" width="240" height="30" as="geometry" />
        </mxCell>
        <mxCell id="udePjBzcwdjK7nTABkOy-55" value="3×3, 512" style="rounded=1;whiteSpace=wrap;html=1;fontSize=25;fillColor=#f8cecc;strokeColor=#000000;" vertex="1" parent="1">
          <mxGeometry x="670" y="625" width="240" height="30" as="geometry" />
        </mxCell>
        <mxCell id="udePjBzcwdjK7nTABkOy-79" style="edgeStyle=orthogonalEdgeStyle;rounded=0;orthogonalLoop=1;jettySize=auto;html=1;exitX=0.5;exitY=1;exitDx=0;exitDy=0;entryX=0.5;entryY=0;entryDx=0;entryDy=0;" edge="1" parent="1" source="udePjBzcwdjK7nTABkOy-56" target="udePjBzcwdjK7nTABkOy-57">
          <mxGeometry relative="1" as="geometry" />
        </mxCell>
        <mxCell id="udePjBzcwdjK7nTABkOy-56" value="3×3, 512" style="rounded=1;whiteSpace=wrap;html=1;fontSize=25;fillColor=#f8cecc;strokeColor=#000000;" vertex="1" parent="1">
          <mxGeometry x="670" y="665" width="240" height="30" as="geometry" />
        </mxCell>
        <mxCell id="udePjBzcwdjK7nTABkOy-91" style="edgeStyle=orthogonalEdgeStyle;rounded=0;orthogonalLoop=1;jettySize=auto;html=1;exitX=0.5;exitY=1;exitDx=0;exitDy=0;entryX=0.5;entryY=0;entryDx=0;entryDy=0;" edge="1" parent="1" source="udePjBzcwdjK7nTABkOy-57" target="udePjBzcwdjK7nTABkOy-87">
          <mxGeometry relative="1" as="geometry" />
        </mxCell>
        <mxCell id="udePjBzcwdjK7nTABkOy-57" value="3×3, 512" style="rounded=1;whiteSpace=wrap;html=1;fontSize=25;fillColor=#f8cecc;strokeColor=#000000;" vertex="1" parent="1">
          <mxGeometry x="670" y="730" width="240" height="30" as="geometry" />
        </mxCell>
        <mxCell id="udePjBzcwdjK7nTABkOy-97" style="edgeStyle=orthogonalEdgeStyle;rounded=0;orthogonalLoop=1;jettySize=auto;html=1;exitX=0.5;exitY=1;exitDx=0;exitDy=0;entryX=0.5;entryY=0;entryDx=0;entryDy=0;" edge="1" parent="1" source="udePjBzcwdjK7nTABkOy-59" target="udePjBzcwdjK7nTABkOy-37">
          <mxGeometry relative="1" as="geometry" />
        </mxCell>
        <mxCell id="udePjBzcwdjK7nTABkOy-59" value="......" style="rounded=1;whiteSpace=wrap;html=1;fontSize=24;fontStyle=1;strokeColor=none;" vertex="1" parent="1">
          <mxGeometry x="1050" y="240" width="80" height="40" as="geometry" />
        </mxCell>
        <mxCell id="udePjBzcwdjK7nTABkOy-85" value="......" style="rounded=1;whiteSpace=wrap;html=1;fontSize=24;fontStyle=1;strokeColor=none;" vertex="1" parent="1">
          <mxGeometry x="150" y="830" width="80" height="40" as="geometry" />
        </mxCell>
        <mxCell id="udePjBzcwdjK7nTABkOy-86" value="......" style="rounded=1;whiteSpace=wrap;html=1;fontSize=24;fontStyle=1;strokeColor=none;" vertex="1" parent="1">
          <mxGeometry x="450" y="1030" width="80" height="40" as="geometry" />
        </mxCell>
        <mxCell id="udePjBzcwdjK7nTABkOy-87" value="......" style="rounded=1;whiteSpace=wrap;html=1;fontSize=24;fontStyle=1;strokeColor=none;" vertex="1" parent="1">
          <mxGeometry x="750" y="830" width="80" height="40" as="geometry" />
        </mxCell>
        <mxCell id="udePjBzcwdjK7nTABkOy-88" value="......" style="rounded=1;whiteSpace=wrap;html=1;fontSize=24;fontStyle=1;strokeColor=none;" vertex="1" parent="1">
          <mxGeometry x="1050" y="830" width="80" height="40" as="geometry" />
        </mxCell>
        <mxCell id="udePjBzcwdjK7nTABkOy-93" value="ResNet18" style="text;strokeColor=none;align=center;fillColor=none;html=1;verticalAlign=middle;whiteSpace=wrap;rounded=0;fontSize=26;fontStyle=1" vertex="1" parent="1">
          <mxGeometry x="160" y="190" width="60" height="30" as="geometry" />
        </mxCell>
        <mxCell id="udePjBzcwdjK7nTABkOy-94" value="ResNet34" style="text;strokeColor=none;align=center;fillColor=none;html=1;verticalAlign=middle;whiteSpace=wrap;rounded=0;fontSize=26;fontStyle=1" vertex="1" parent="1">
          <mxGeometry x="460" y="190" width="60" height="30" as="geometry" />
        </mxCell>
        <mxCell id="udePjBzcwdjK7nTABkOy-95" value="VGG19" style="text;strokeColor=none;align=center;fillColor=none;html=1;verticalAlign=middle;whiteSpace=wrap;rounded=0;fontSize=26;fontStyle=1" vertex="1" parent="1">
          <mxGeometry x="1060" y="190" width="60" height="30" as="geometry" />
        </mxCell>
        <mxCell id="udePjBzcwdjK7nTABkOy-96" value="VGG16" style="text;strokeColor=none;align=center;fillColor=none;html=1;verticalAlign=middle;whiteSpace=wrap;rounded=0;fontSize=26;fontStyle=1" vertex="1" parent="1">
          <mxGeometry x="760" y="190" width="60" height="30" as="geometry" />
        </mxCell>
      </root>
    </mxGraphModel>
  </diagram>
</mxfile>
